<svg width="1151" height="763" viewBox="0 0 1151 763" fill="none" xmlns="http://www.w3.org/2000/svg">
<path fill-rule="evenodd" clip-rule="evenodd" d="M929.553 394.451C990.633 284.554 980.706 201.406 973.424 140.41C972.079 129.149 970.825 118.643 970.125 108.863C969.001 93.1759 969.303 79.3957 972.906 67.3596C976.504 55.3419 983.4 45.0387 995.517 36.3127C1007.65 27.5767 1025.03 20.4114 1049.6 14.7154C1074.16 9.02016 1105.89 4.80038 1146.7 1.93666L1146.63 0.939114C1105.79 3.80467 1074.01 8.02935 1049.37 13.7413C1024.73 19.4525 1007.21 26.6571 994.933 35.5012C982.638 44.3553 975.61 54.8424 971.948 67.0728C968.292 79.2847 968 93.2102 969.127 108.934C969.83 118.746 971.086 129.272 972.431 140.546L972.432 140.552L972.432 140.557C979.709 201.542 989.592 284.369 928.679 393.965C892.585 458.908 851.461 498.182 805.488 520.522C759.509 542.865 708.628 548.295 652.974 545.456C604.895 543.003 553.294 534.383 498.242 525.187L498.241 525.187C489.557 523.736 480.788 522.271 471.932 520.814C406.952 510.12 337.39 499.84 263.433 498.676C204.201 497.744 157.525 513.296 121.024 539.207C84.5281 565.115 58.2335 601.359 39.7229 641.77C2.70712 722.579 -3.21721 820.124 2.69405 885.3L3.68995 885.21C-2.21154 820.142 3.71219 722.786 40.632 642.186C59.0891 601.893 85.2842 565.805 121.603 540.023C157.917 514.244 204.381 498.747 263.418 499.676C337.296 500.839 406.797 511.108 471.77 521.801C480.604 523.255 489.355 524.717 498.022 526.164L498.063 526.171L498.069 526.172L498.071 526.173C553.117 535.368 604.782 543.999 652.923 546.454C708.666 549.298 759.736 543.866 805.925 521.421C852.121 498.973 893.382 459.532 929.553 394.451ZM962.184 416.425C1023.26 306.528 1013.34 223.38 1006.05 162.384C1004.71 151.123 1003.46 140.617 1002.76 130.837C1001.63 115.151 1001.93 101.37 1005.54 89.3343C1009.13 77.3166 1016.03 67.0134 1028.15 58.2874C1040.28 49.5514 1057.66 42.3861 1082.23 36.6901C1106.79 30.9948 1138.52 26.775 1179.33 23.9113L1179.26 22.9138C1138.43 25.7793 1106.64 30.004 1082 35.7159C1057.37 41.4271 1039.84 48.6318 1027.56 57.4759C1015.27 66.33 1008.24 76.8171 1004.58 89.0474C1000.92 101.259 1000.63 115.185 1001.76 130.909C1002.46 140.72 1003.72 151.247 1005.06 162.52L1005.06 162.526L1005.06 162.532C1012.34 223.516 1022.22 306.343 961.31 415.939C925.216 480.882 884.091 520.156 838.119 542.496C792.14 564.839 741.259 570.269 685.605 567.43C637.526 564.978 585.924 556.358 530.873 547.162L530.872 547.162C522.188 545.711 513.419 544.246 504.563 542.789C439.583 532.095 370.021 521.815 296.064 520.651C236.832 519.719 190.156 535.27 153.655 561.182C117.159 587.09 90.8645 623.334 72.3538 663.745C35.338 744.554 29.4137 842.099 35.325 907.275L36.3209 907.184C30.4194 842.116 36.3431 744.761 73.2629 664.161C91.72 623.867 117.915 587.78 154.234 561.997C190.548 536.219 237.012 520.722 296.048 521.651C369.927 522.814 439.428 533.082 504.401 543.775C513.235 545.229 521.986 546.691 530.653 548.139L530.694 548.146L530.7 548.147L530.702 548.147C585.748 557.343 637.413 565.974 685.554 568.429C741.297 571.273 792.367 565.841 838.556 543.396C884.751 520.947 926.013 481.507 962.184 416.425ZM1038.69 184.359C1045.97 245.355 1055.89 328.503 994.815 438.4C958.644 503.481 917.382 542.922 871.187 565.37C824.998 587.816 773.928 593.247 718.185 590.404C670.044 587.948 618.379 579.318 563.333 570.122L563.331 570.122L563.325 570.121L563.284 570.114C554.617 568.666 545.866 567.204 537.032 565.75C472.059 555.057 402.558 544.788 328.68 543.626C269.643 542.697 223.179 558.194 186.865 583.972C150.546 609.754 124.351 645.842 105.894 686.136C68.9742 766.736 63.0504 864.091 68.9519 929.159L67.956 929.249C62.0448 864.073 67.9691 766.528 104.985 685.719C123.496 645.309 149.79 609.065 186.286 583.157C222.787 557.245 269.463 541.694 328.695 542.626C402.652 543.79 472.214 554.069 537.194 564.763C546.05 566.221 554.819 567.686 563.503 569.136L563.504 569.137C618.556 578.333 670.157 586.953 718.236 589.405C773.89 592.244 824.771 586.814 870.75 564.471C916.722 542.131 957.847 502.857 993.941 437.914C1054.85 328.318 1044.97 245.491 1037.69 184.506L1037.69 184.501L1037.69 184.495C1036.35 173.222 1035.09 162.695 1034.39 152.884C1033.26 137.16 1033.55 123.234 1037.21 111.022C1040.87 98.7919 1047.9 88.3048 1060.19 79.4507C1072.48 70.6065 1090 63.4019 1114.63 57.6907C1139.27 51.9788 1171.06 47.7541 1211.89 44.8886L1211.96 45.8861C1171.15 48.7498 1139.42 52.9696 1114.86 58.6649C1090.29 64.3609 1072.91 71.5262 1060.78 80.2621C1048.66 88.9882 1041.77 99.2914 1038.17 111.309C1034.56 123.345 1034.26 137.125 1035.39 152.812C1036.09 162.592 1037.34 173.098 1038.69 184.359ZM1027.45 460.375C1088.53 350.478 1078.6 267.33 1071.32 206.334C1069.97 195.073 1068.72 184.567 1068.02 174.787C1066.89 159.1 1067.2 145.32 1070.8 133.284C1074.4 121.266 1081.29 110.963 1093.41 102.237C1105.54 93.5008 1122.92 86.3355 1147.49 80.6395C1172.06 74.9443 1203.78 70.7245 1244.59 67.8608L1244.52 66.8632C1203.69 69.7288 1171.9 73.9534 1147.26 79.6654C1122.63 85.3765 1105.11 92.5812 1092.83 101.425C1080.53 110.279 1073.5 120.767 1069.84 132.997C1066.19 145.209 1065.89 159.134 1067.02 174.858C1067.72 184.67 1068.98 195.196 1070.32 206.47L1070.32 206.476L1070.33 206.481C1077.6 267.466 1087.48 350.293 1026.57 459.889C990.478 524.832 949.354 564.106 903.381 586.446C857.402 608.789 806.521 614.219 750.867 611.38C702.788 608.927 651.186 600.307 596.134 591.111C587.45 589.66 578.681 588.195 569.825 586.738C504.845 576.044 435.283 565.764 361.326 564.6C302.095 563.668 255.418 579.22 218.917 605.131C182.421 631.039 156.127 667.283 137.616 707.694C100.6 788.503 94.6758 886.048 100.587 951.224L101.583 951.134C95.6815 886.066 101.605 788.71 138.525 708.11C156.982 667.817 183.177 631.729 219.496 605.947C255.81 580.168 302.274 564.671 361.311 565.6C435.189 566.763 504.69 577.032 569.663 587.725C578.497 589.179 587.248 590.641 595.915 592.089L595.956 592.095L595.962 592.096L595.963 592.096C651.009 601.292 702.675 609.923 750.816 612.379C806.559 615.222 857.629 609.79 903.818 587.345C950.014 564.897 991.275 525.456 1027.45 460.375ZM1103.95 228.308C1111.23 289.305 1121.16 372.452 1060.08 482.349C1023.91 547.431 982.645 586.871 936.449 609.32C890.26 631.765 839.19 637.197 783.447 634.353C735.307 631.898 683.643 623.267 628.599 614.072L628.595 614.071L628.593 614.071C619.911 612.62 611.144 611.156 602.294 609.699C537.321 599.006 467.82 588.738 393.942 587.575C334.905 586.646 288.441 602.143 252.127 627.922C215.808 653.704 189.613 689.791 171.156 730.085C134.236 810.685 128.313 908.04 134.214 973.108L133.218 973.199C127.307 908.023 133.231 810.478 170.247 729.669C188.758 689.258 215.052 653.014 251.548 627.106C288.049 601.194 334.726 585.643 393.957 586.575C467.914 587.739 537.476 598.019 602.456 608.713C611.293 610.167 620.044 611.629 628.709 613.076L628.765 613.086C683.817 622.282 735.419 630.902 783.498 633.355C839.152 636.193 890.033 630.763 936.012 608.42C981.985 586.08 1023.11 546.806 1059.2 481.863C1120.12 372.267 1110.23 289.44 1102.96 228.456L1102.96 228.45L1102.96 228.444C1101.61 217.171 1100.35 206.644 1099.65 196.833C1098.52 181.109 1098.82 167.183 1102.47 154.972C1106.13 142.741 1113.16 132.254 1125.46 123.4C1137.74 114.556 1155.26 107.351 1179.89 101.64C1204.53 95.9281 1236.32 91.7034 1277.15 88.8378L1277.22 89.8354C1236.41 92.6991 1204.69 96.9189 1180.12 102.614C1155.55 108.31 1138.17 115.475 1126.04 124.211C1113.92 132.937 1107.03 143.241 1103.43 155.258C1099.83 167.294 1099.52 181.075 1100.65 196.761C1101.35 206.541 1102.6 217.047 1103.95 228.308ZM1092.71 504.324C1153.79 394.427 1143.86 311.279 1136.58 250.283C1135.23 239.022 1133.98 228.516 1133.28 218.736C1132.16 203.049 1132.46 189.269 1136.06 177.233C1139.66 165.215 1146.56 154.912 1158.67 146.186C1170.8 137.45 1188.18 130.285 1212.75 124.589C1237.32 118.894 1269.05 114.674 1309.85 111.81L1309.78 110.813C1268.95 113.678 1237.16 117.903 1212.52 123.615C1187.89 129.326 1170.37 136.53 1158.09 145.375C1145.79 154.229 1138.76 164.716 1135.1 176.946C1131.45 189.158 1131.16 203.084 1132.28 218.808C1132.99 228.621 1134.24 239.15 1135.59 250.425L1135.59 250.43C1142.86 311.415 1152.75 394.242 1091.83 503.838C1055.74 568.781 1014.62 608.055 968.643 630.395C922.664 652.738 871.783 658.168 816.129 655.329C768.05 652.877 716.448 644.257 661.396 635.06L661.34 635.051C652.675 633.603 643.924 632.142 635.088 630.687C570.108 619.993 500.545 609.714 426.588 608.55C367.357 607.618 320.68 623.169 284.179 649.081C247.683 674.989 221.389 711.233 202.878 751.643C165.862 832.452 159.938 929.997 165.849 995.173L166.845 995.083C160.944 930.015 166.867 832.66 203.787 752.06C222.244 711.766 248.439 675.678 284.758 649.896C321.072 624.118 367.536 608.621 426.573 609.55C500.451 610.712 569.952 620.981 634.925 631.674C643.775 633.131 652.542 634.595 661.224 636.046L661.226 636.046C716.272 645.241 767.937 653.872 816.078 656.328C871.821 659.171 922.891 653.74 969.08 631.294C1015.28 608.846 1056.54 569.405 1092.71 504.324Z" fill="url(#paint0_linear_101_20)"/>
<defs>
<linearGradient id="paint0_linear_101_20" x1="346.92" y1="43.9285" x2="297.735" y2="744.103" gradientUnits="userSpaceOnUse">
<stop stop-color="#CBCEE4"/>
<stop offset="1" stop-color="white" stop-opacity="0"/>
</linearGradient>
</defs>
</svg>
